<svg xmlns="http://www.w3.org/2000/svg" xmlns:xlink="http://www.w3.org/1999/xlink" x="0px" y="0px"
	 viewBox="0 0 228.76 83.98" style="enable-background:new 0 0 228.76 83.98;" xml:space="preserve">
<g>
	<path d="M0,5.25h2.92v14.98h30V5.25h2.83v38.08H0V5.25z M2.92,23v17.46h30V23H2.92z M32.19,54.3c5.35,0,9.94,0.59,13.77,1.77
		c3.83,1.18,6.76,2.86,8.8,5.06c2.04,2.19,3.05,4.85,3.05,7.97c0,3.12-1.02,5.79-3.05,8.02c-2.04,2.23-4.97,3.93-8.8,5.1
		c-3.83,1.18-8.42,1.77-13.77,1.77c-5.35,0-9.94-0.59-13.77-1.77c-3.83-1.18-6.76-2.88-8.8-5.1c-2.04-2.23-3.05-4.9-3.05-8.02
		c0-3.12,1.02-5.77,3.05-7.97c2.04-2.2,4.97-3.88,8.8-5.06C22.25,54.89,26.84,54.3,32.19,54.3z M32.19,57.07
		c-4.56,0-8.54,0.49-11.94,1.48c-3.4,0.99-6.06,2.39-7.98,4.2s-2.87,3.93-2.87,6.35c0,2.48,0.96,4.63,2.87,6.44s4.57,3.21,7.98,4.2
		c3.4,0.99,7.39,1.48,11.94,1.48c4.56,0,8.56-0.49,11.99-1.48c3.43-0.99,6.09-2.39,7.98-4.2c1.88-1.81,2.83-3.96,2.83-6.44
		c0-2.42-0.94-4.53-2.83-6.35c-1.88-1.81-4.54-3.21-7.98-4.2C40.74,57.56,36.74,57.07,32.19,57.07z M54.16,0h3.01v51.63h-3.01V0z
		 M56.35,22.81H70.3v2.86H56.35V22.81z"/>
	<path d="M79.51,69.66h73.03v2.86H79.51V69.66z M88.99,6.58H92v17.18h47.96V6.58h2.92v42.27H88.99V6.58z M92,26.72V46h47.96V26.72
		H92z M114.34,47.24h2.92V71h-2.92V47.24z"/>
	<path d="M185.09,5.53c3.89,0,7.35,0.83,10.39,2.48c3.04,1.66,5.42,3.93,7.16,6.82c1.73,2.9,2.6,6.25,2.6,10.07
		c0,3.88-0.87,7.27-2.6,10.16c-1.73,2.9-4.12,5.15-7.16,6.78c-3.04,1.62-6.51,2.43-10.39,2.43c-3.89,0-7.36-0.81-10.39-2.43
		c-3.04-1.62-5.42-3.88-7.16-6.78c-1.73-2.89-2.6-6.28-2.6-10.16c0-3.82,0.87-7.17,2.6-10.07c1.73-2.89,4.12-5.17,7.16-6.82
		C177.73,6.36,181.2,5.53,185.09,5.53z M185.09,8.3c-3.28,0-6.23,0.75-8.84,2.24c-2.61,1.5-4.67,3.48-6.15,5.96
		c-1.49,2.48-2.23,5.28-2.23,8.4c0,3.12,0.74,5.92,2.23,8.4c1.49,2.48,3.54,4.45,6.15,5.92c2.61,1.46,5.56,2.2,8.84,2.2
		c3.28,0,6.23-0.73,8.84-2.2c2.61-1.46,4.66-3.44,6.15-5.92c1.49-2.48,2.23-5.28,2.23-8.4c0-3.12-0.75-5.92-2.23-8.4
		c-1.49-2.48-3.54-4.47-6.15-5.96C191.32,9.05,188.37,8.3,185.09,8.3z M202.77,52.68c5.41,0,10.04,0.62,13.9,1.86
		s6.84,3.01,8.94,5.3c2.1,2.29,3.15,5.09,3.15,8.4c0,3.31-1.05,6.12-3.15,8.45c-2.1,2.32-5.08,4.1-8.94,5.34s-8.49,1.86-13.9,1.86
		s-10.06-0.62-13.95-1.86c-3.89-1.24-6.88-3.02-8.98-5.34c-2.1-2.32-3.15-5.14-3.15-8.45c0-3.31,1.05-6.11,3.15-8.4
		c2.1-2.29,5.09-4.06,8.98-5.3C192.71,53.3,197.36,52.68,202.77,52.68z M202.77,55.35c-4.62,0-8.66,0.54-12.12,1.62
		c-3.46,1.08-6.17,2.58-8.12,4.49c-1.95,1.91-2.92,4.17-2.92,6.78c0,2.54,0.97,4.79,2.92,6.73c1.94,1.94,4.65,3.45,8.12,4.53
		c3.46,1.08,7.51,1.62,12.12,1.62s8.65-0.54,12.08-1.62c3.43-1.08,6.12-2.59,8.07-4.53c1.95-1.94,2.92-4.18,2.92-6.73
		c0-2.61-0.97-4.87-2.92-6.78c-1.95-1.91-4.63-3.4-8.07-4.49C211.42,55.89,207.39,55.35,202.77,55.35z M201.13,13.36h25.26v2.77
		h-25.26V13.36z M201.13,33.49h25.26v2.86h-25.26V33.49z M225.39,0h3.01v50.39h-3.01V0z"/>
</g>
</svg>
